PathFileType	4	(X/Y/Z)	/Users/itak/Documents/Research/Walk-IL/dataset/trc/00097_00006.trc
DataRate	CameraRate	NumFrames	NumMarkers	Units	OrigDataRate	OrigDataStartFrame	OrigNumFrames
100.000000	100.000000	4	53	mm	100.000000	130	520
Frame#	Time	RPSI			LPSI			L3			STRN			T10			C7			CLAV			RBAK			LBAK			LSHO			LUPA			LAEL			LAOL			LWTS			LWPS			LFRA			LIFD			LHPS			LHTS			RSHO			RUPA			RAEL			RAOL			RWTS			RWPS			RFRA			RIFD			RHTS			RHPS			RBHD			LFHD			RFHD			LBHD			LHIP			RHIP			RASI			LASI			LKNE			LTHI			LANK			LTIP			LTOE			LMT1			LMT5			LHEE			RKNE			RTHI			RANK			RTIP			RTOE			RMT1			RMT5			RHEE			
		X1	Y1	Z1	X2	Y2	Z2	X3	Y3	Z3	X4	Y4	Z4	X5	Y5	Z5	X6	Y6	Z6	X7	Y7	Z7	X8	Y8	Z8	X9	Y9	Z9	X10	Y10	Z10	X11	Y11	Z11	X12	Y12	Z12	X13	Y13	Z13	X14	Y14	Z14	X15	Y15	Z15	X16	Y16	Z16	X17	Y17	Z17	X18	Y18	Z18	X19	Y19	Z19	X20	Y20	Z20	X21	Y21	Z21	X22	Y22	Z22	X23	Y23	Z23	X24	Y24	Z24	X25	Y25	Z25	X26	Y26	Z26	X27	Y27	Z27	X28	Y28	Z28	X29	Y29	Z29	X30	Y30	Z30	X31	Y31	Z31	X32	Y32	Z32	X33	Y33	Z33	X34	Y34	Z34	X35	Y35	Z35	X36	Y36	Z36	X37	Y37	Z37	X38	Y38	Z38	X39	Y39	Z39	X40	Y40	Z40	X41	Y41	Z41	X42	Y42	Z42	X43	Y43	Z43	X44	Y44	Z44	X45	Y45	Z45	X46	Y46	Z46	X47	Y47	Z47	X48	Y48	Z48	X49	Y49	Z49	X50	Y50	Z50	X51	Y51	Z51	X52	Y52	Z52	X53	Y53	Z53	

131	1.3	-1324.781005859375	1042.193359375	143.3948669433594	-1349.83251953125	1030.965454101562	-31.17489433288574	-1332.366821289062	1086.2353515625	48.79449462890625	-1081.2548828125	1282.651977539062	31.2384204864502	-1348.539184570312	1219.227172851562	42.42870330810547	-1288.321533203125	1486.616821289062	36.91043853759766	-1109.689208984375	1397.717407226562	31.15474510192871	-1347.620361328125	1347.384033203125	115.236946105957	-1313.704833984375	1448.76611328125	-64.17839813232422	-1212.642456054688	1452.810668945312	-141.3494110107422	-1233.677856445312	1323.521362304688	-215.7940063476562	-1215.578491210938	1106.973022460938	-228.4436340332031	-1274.576538085938	1095.767578125	-139.8536376953125	-1116.893920898438	873.6097412109375	-157.4400787353516	-1178.693237304688	857.463623046875	-212.3231506347656	-1193.893432617188	997.9069213867188	-231.0331420898438	-1106.552001953125	692.6736450195312	-120.1814575195312	-1141.21875	777.282958984375	-204.0133819580078	-1090.632690429688	792.8782958984375	-157.7372131347656	-1218.455078125	1447.6025390625	211.17919921875	-1227.460693359375	1376.573608398438	274.4005432128906	-1265.362670898438	1113.29248046875	301.2373657226562	-1248.205810546875	1090.0947265625	206.1723175048828	-1124.639770507812	861.0150146484375	270.5499877929688	-1196.781616210938	846.5769653320312	318.9129638671875	-1253.925537109375	1033.199951171875	309.1749267578125	-1127.868041992188	675.5922241210938	249.4452362060547	-1100.2509765625	760.059326171875	274.0326538085938	-1159.585205078125	757.28076171875	324.4468078613281	-1269.08935546875	1646.408935546875	97.66548919677734	-1076.445556640625	1709.22314453125	6.360294342041016	-1107.499389648438	1695.819213867188	127.6880264282227	-1244.755859375	1667.533081054688	-36.50016403198242	-1255.322509765625	961.679931640625	-129.2944641113281	-1255.695678710938	969.7070922851562	216.6655578613281	-1132.594848632812	978.56591796875	184.5006408691406	-1139.6435546875	968.6412353515625	-83.76739501953125	-1174.29150390625	497.3169555664062	-66.06552124023438	-1209.582641601562	635.79931640625	-107.4434432983398	-1331.0654296875	52.36893081665039	-70.50038909912109	-1258.182373046875	260.1874694824219	-79.60762023925781	-1125.995361328125	50.8405647277832	-69.94100189208984	-1172.601440429688	48.81581497192383	-15.25240802764893	-1230.352661132812	45.50178527832031	-110.9225997924805	-1380.672119140625	49.59265899658203	8.100714683532715	-1211.398315429688	520.8538818359375	213.1004028320312	-1183.6708984375	792.8690795898438	225.5165405273438	-1313.807861328125	43.22019958496094	238.9887542724609	-1239.109741210938	402.0676574707031	226.4097595214844	-1103.5224609375	52.02590179443359	179.3938446044922	-1167.445922851562	51.82931137084961	146.3948211669922	-1188.090087890625	50.84598922729492	242.2199554443359	-1365.872924804688	44.47948455810547	187.6119689941406	
132	1.31	-1323.842041015625	1042.29248046875	141.9546508789062	-1348.975708007812	1030.989990234375	-32.53178024291992	-1331.272338867188	1086.66796875	47.35153579711914	-1079.5703125	1282.326416015625	29.23486328125	-1346.85888671875	1219.787719726562	40.83031463623047	-1285.836181640625	1486.944702148438	35.19595336914062	-1107.559326171875	1397.489624023438	29.21271324157715	-1345.586303710938	1347.95458984375	113.5995941162109	-1311.40380859375	1449.128540039062	-65.84169769287109	-1210.527221679688	1453.043212890625	-143.1623687744141	-1231.951782226562	1323.864624023438	-217.7044982910156	-1214.076904296875	1107.088256835938	-230.0511016845703	-1273.4453125	1096.2001953125	-141.715576171875	-1115.747924804688	874.0119018554688	-157.4875030517578	-1177.091918945312	857.5938110351562	-212.6152038574219	-1192.339477539062	997.9708251953125	-232.0938415527344	-1105.724487304688	693.1648559570312	-119.4573059082031	-1139.863159179688	777.4676513671875	-203.8075408935547	-1089.594848632812	793.2276611328125	-157.2711029052734	-1215.712158203125	1447.614379882812	209.243896484375	-1225.119750976562	1376.720336914062	272.4595031738281	-1264.447509765625	1114.023315429688	299.8519897460938	-1247.029418945312	1090.42041015625	204.7728271484375	-1124.372314453125	861.2363891601562	269.9100341796875	-1196.527587890625	847.0576171875	318.2271423339844	-1253.367797851562	1033.759033203125	308.1170654296875	-1128.033081054688	675.8244018554688	249.2274017333984	-1100.048583984375	760.35595703125	273.6122741699219	-1159.66357421875	757.7114868164062	323.9835815429688	-1266.932373046875	1646.003173828125	95.93993377685547	-1073.9365234375	1709.3681640625	5.687436103820801	-1105.467163085938	1695.461303710938	126.8425521850586	-1242.078491210938	1667.616333007812	-37.993408203125	-1254.6123046875	961.5267944335938	-130.6245422363281	-1254.754028320312	969.7391357421875	215.3570861816406	-1131.778564453125	978.697021484375	182.8527984619141	-1138.731689453125	968.4767456054688	-85.49795532226562	-1174.337524414062	497.1410522460938	-66.97810363769531	-1209.255859375	635.6889038085938	-108.5627059936523	-1331.072509765625	52.18571090698242	-70.68891143798828	-1258.216186523438	259.9610900878906	-80.26673889160156	-1126.076416015625	50.41514205932617	-70.11743927001953	-1172.665283203125	48.69917297363281	-15.35476016998291	-1230.287109375	45.15158462524414	-111.1209106445312	-1380.878540039062	49.51285934448242	7.895737171173096	-1206.00341796875	520.6082153320312	211.0444641113281	-1181.459838867188	792.7987060546875	223.4011077880859	-1313.894165039062	43.64025115966797	238.6682434082031	-1234.34765625	401.4650268554688	224.8616027832031	-1103.67138671875	51.97328567504883	179.1968994140625	-1167.583740234375	51.56396865844727	146.1507110595703	-1188.314819335938	51.04018020629883	242.0583343505859	-1365.706787109375	44.51811218261719	187.4199371337891	
133	1.32	-1323.029052734375	1042.298828125	140.5159301757812	-1348.108520507812	1030.94189453125	-33.86973571777344	-1330.216918945312	1087.114501953125	45.89491271972656	-1077.851196289062	1281.93310546875	27.29977226257324	-1345.177368164062	1220.371704101562	39.18967056274414	-1283.247192382812	1487.250854492188	33.4322624206543	-1105.358520507812	1397.20361328125	27.30082702636719	-1343.5185546875	1348.562255859375	111.8874893188477	-1308.950561523438	1449.475341796875	-67.58551788330078	-1208.219360351562	1453.248901367188	-144.9973449707031	-1230.0146484375	1324.21435546875	-219.6720123291016	-1212.395874023438	1107.22021484375	-231.7469024658203	-1272.254028320312	1096.641357421875	-143.7575988769531	-1114.489135742188	874.4354248046875	-157.4463806152344	-1175.2587890625	857.7473754882812	-212.9637603759766	-1190.580444335938	998.05517578125	-233.2180786132812	-1104.958740234375	693.6576538085938	-118.7007293701172	-1138.3603515625	777.6776733398438	-203.6105346679688	-1088.497314453125	793.5728759765625	-156.6830444335938	-1212.958618164062	1447.6640625	207.2716064453125	-1222.810180664062	1376.9306640625	270.5035705566406	-1263.5703125	1114.82958984375	298.486083984375	-1245.944946289062	1090.8173828125	203.407958984375	-1124.117797851562	861.54345703125	269.2662658691406	-1196.29443359375	847.609375	317.5405883789062	-1252.8564453125	1034.38671875	307.0800476074219	-1128.234619140625	676.1680297851562	248.974365234375	-1099.904174804688	760.7018432617188	273.1403503417969	-1159.756591796875	758.2163696289062	323.5025329589844	-1264.706665039062	1645.56884765625	94.15171813964844	-1071.31201171875	1709.461669921875	5.019585132598877	-1103.364990234375	1695.05517578125	125.9910049438477	-1239.239868164062	1667.6376953125	-39.53315734863281	-1253.855346679688	961.3336181640625	-131.894287109375	-1253.940551757812	969.6766967773438	214.1107330322266	-1131.088256835938	978.8023681640625	181.3168792724609	-1137.713745117188	968.2900390625	-87.22625732421875	-1174.294555664062	496.9339294433594	-67.93496704101562	-1208.866821289062	635.568603515625	-109.6726531982422	-1331.081665039062	52.02531433105469	-70.85634613037109	-1258.2265625	259.7265625	-80.94583892822266	-1126.142944335938	50.00128173828125	-70.31114959716797	-1172.71240234375	48.58625411987305	-15.46456623077393	-1230.181030273438	44.78360748291016	-111.3221588134766	-1381.053344726562	49.4353141784668	7.707610130310059	-1199.539794921875	520.3433227539062	208.86865234375	-1178.965087890625	792.6483764648438	221.2145385742188	-1313.987426757812	44.331787109375	238.1244506835938	-1228.679565429688	400.7648620605469	223.2586364746094	-1103.760498046875	51.73310089111328	179.0165405273438	-1167.646240234375	51.20449447631836	145.8535766601562	-1188.546875	51.29834747314453	241.8149566650391	-1365.571899414062	44.99848937988281	186.8517761230469	
134	1.33	-1322.3505859375	1042.17626953125	139.0904846191406	-1347.235473632812	1030.812866210938	-35.17718124389648	-1329.216552734375	1087.56298828125	44.42760467529297	-1076.097534179688	1281.445922851562	25.45774078369141	-1343.498168945312	1220.962036132812	37.51052856445312	-1280.564453125	1487.517578125	31.61433982849121	-1103.088500976562	1396.835327148438	25.4433479309082	-1341.421752929688	1349.190307617188	110.1051712036133	-1306.33447265625	1449.790405273438	-69.40316772460938	-1205.693481445312	1453.404174804688	-146.8365478515625	-1227.8427734375	1324.548583984375	-221.6861572265625	-1210.526489257812	1107.348266601562	-233.5320129394531	-1270.9912109375	1097.066772460938	-145.9789123535156	-1113.099609375	874.864013671875	-157.3258819580078	-1173.176635742188	857.9086303710938	-213.3695831298828	-1188.608154296875	998.1401977539062	-234.4083862304688	-1104.202392578125	694.1392822265625	-117.8843765258789	-1136.677612304688	777.8989868164062	-203.4124908447266	-1087.310546875	793.90478515625	-155.9696044921875	-1210.221069335938	1447.743896484375	205.2885131835938	-1220.544677734375	1377.185913085938	268.5520324707031	-1262.744018554688	1115.685180664062	297.1658020019531	-1244.962036132812	1091.26220703125	202.0991668701172	-1123.8818359375	861.9129028320312	268.6326904296875	-1196.097045898438	848.2042846679688	316.8521423339844	-1252.399780273438	1035.058959960938	306.0816955566406	-1128.448852539062	676.608642578125	248.6646118164062	-1099.827514648438	761.0656127929688	272.6165161132812	-1159.857299804688	758.7579956054688	322.99755859375	-1262.405029296875	1645.086547851562	92.31845855712891	-1068.57470703125	1709.484497070312	4.358543395996094	-1101.195922851562	1694.5869140625	125.1357345581055	-1236.245361328125	1667.584350585938	-41.11957168579102	-1253.045776367188	961.0939331054688	-133.0947570800781	-1253.26318359375	969.4769287109375	212.9217376708984	-1130.504760742188	978.8521118164062	179.9177856445312	-1136.597290039062	968.072998046875	-88.91851806640625	-1174.176635742188	496.6966247558594	-68.93228912353516	-1208.431274414062	635.439697265625	-110.7644195556641	-1331.097045898438	51.88092422485352	-71.00160980224609	-1258.205810546875	259.4839477539062	-81.63148498535156	-1126.1923828125	49.61869049072266	-70.50749206542969	-1172.748901367188	48.47982025146484	-15.57738590240479	-1230.046142578125	44.40853881835938	-111.5219650268555	-1381.200805664062	49.36703109741211	7.539476871490479	-1191.987060546875	520.0866088867188	206.6067352294922	-1176.167724609375	792.418212890625	219.0071563720703	-1314.078979492188	45.37652587890625	237.2912445068359	-1222.12451171875	400.01953125	221.6238708496094	-1103.77734375	51.32865905761719	178.8825225830078	-1167.596069335938	50.78382110595703	145.5113983154297	-1188.79443359375	51.65112686157227	241.4747924804688	-1365.449462890625	46.07728576660156	185.7955780029297	
